<svg width="102" height="33" viewBox="0 0 102 33" fill="none" xmlns="http://www.w3.org/2000/svg">
<path d="M41.8013 2.48048C43.5647 2.55158 44.7692 2.90706 45.2651 3.33364C45.7611 3.76022 46.0445 4.88987 46.0445 6.52509V26.4401C46.0445 28.1385 45.7611 29.2049 45.2651 29.6315C44.7692 30.0581 43.5726 30.3425 41.8013 30.4136V31.2667H54.7985V30.4136C53.0351 30.3425 51.9015 30.0581 51.3347 29.6315C50.8387 29.2049 50.5553 28.1464 50.5553 26.4401V6.52509C50.5553 4.89777 50.8387 3.76022 51.3347 3.33364C51.9015 2.90706 53.0273 2.55158 54.7985 2.48048V1.69842H41.8013V2.48048Z" fill="white"/>
<path d="M82.1395 29.7737C81.6436 29.4182 81.0059 28.9916 80.447 28.2886L71.4804 16.9447C73.9523 16.5181 75.7866 15.7361 77.2744 14.5353C78.6836 13.3267 79.3921 11.6993 79.3921 9.43216C79.3921 6.16961 77.7704 3.83132 74.6608 2.63058C72.9682 1.91961 70.8506 1.70632 68.3078 1.70632H56.019V2.48838C57.6408 2.63058 58.6327 2.91496 59.0578 3.41264C59.5537 3.91032 59.8371 4.89777 59.8371 6.53299V25.8081C59.8371 27.7198 59.5537 28.9284 59.1286 29.4261C58.7035 29.8527 57.7195 30.2082 56.019 30.3504V31.2035H68.237V30.3504C66.5444 30.2793 65.5525 29.9238 64.9857 29.4972C64.4897 29.0706 64.2063 28.0121 64.2063 26.3769V17.5846L66.6782 17.5135L77.1327 31.2667H83.4227L83.281 30.2714C82.9268 30.2003 82.5017 30.0581 82.1474 29.7737H82.1395ZM64.2693 15.9494V4.88987C64.2693 4.1789 64.411 3.82342 64.6944 3.68123C64.9778 3.39684 65.6863 3.32574 66.9538 3.32574C68.788 3.32574 70.2759 3.61013 71.4016 4.10781C73.5193 5.03206 74.5112 6.87268 74.5112 9.42426C74.5112 12.1891 73.3068 14.0297 71.0474 14.954C69.7091 15.4517 67.371 15.8072 64.2693 15.9494Z" fill="white"/>
<path d="M100.569 19.0697C99.5766 17.7979 97.8841 16.3759 95.483 14.8197L91.6019 12.4814C90.1928 11.5572 89.13 10.6408 88.4215 9.78764C87.713 9.00558 87.4296 8.08922 87.4296 6.80948C87.4296 5.60084 87.8547 4.54229 88.697 3.83132C89.6181 3.04926 90.673 2.69377 91.8066 2.69377C93.3575 2.69377 94.987 3.33364 96.467 4.39219C98.0888 5.52974 99.2932 7.51255 99.9309 10.3485H100.923L100.002 0.853161H99.0807C99.0098 1.35084 98.7973 1.70632 98.6556 1.99071C98.3722 2.27509 98.0888 2.41729 97.4511 2.41729C97.3094 2.41729 96.53 2.1329 95.05 1.63522C93.6409 1.13755 92.4364 0.853161 91.4445 0.853161C88.9726 0.853161 86.9966 1.63522 85.5796 3.12035C84.0287 4.67658 83.391 6.52509 83.391 8.72119C83.391 10.4196 83.9579 11.9837 85.2253 13.3978C85.7921 14.1798 86.7762 14.8829 87.8389 15.665L91.5862 18.0033C93.7747 19.4173 95.2626 20.4126 95.8215 21.1236C96.9551 22.1901 97.4432 23.4619 97.4432 24.947C97.4432 26.5744 96.9473 27.783 95.8215 28.7704C94.9004 29.6236 93.633 30.0423 92.216 30.0423C89.6023 30.0423 87.4847 28.9758 85.6504 26.9219C84.7294 25.7133 83.8162 24.1571 83.1076 22.1743H82.1157L83.1785 30.1845C83.4619 30.2556 83.7453 30.3267 84.0996 30.3267V31.1798H83.3202L83.391 31.6775H84.383C84.383 31.2509 84.5247 30.8954 84.7372 30.6111C84.8789 30.2556 85.2332 30.1134 85.7291 30.1134C85.8708 30.1134 86.7211 30.3978 88.2719 30.8954C89.6811 31.3931 91.1689 31.6775 92.5072 31.6775C95.1917 31.6775 97.4511 30.8954 99.1437 29.3392C100.907 27.783 101.757 25.7923 101.757 23.454C101.97 21.8267 101.474 20.3336 100.553 19.0618L100.569 19.0697Z" fill="white"/>
<path d="M84.2575 30.4057C83.9032 30.4057 83.6198 30.3346 83.3364 30.2635L83.4781 31.2588H84.2575V30.4057Z" fill="white"/>
<path d="M34.8819 4.2579C34.4568 3.54693 30.1506 1.49303 23.8606 0.221189C21.3178 3.05716 21.3178 4.1868 21.2469 4.61338C21.1761 5.03996 22.0972 6.24071 23.0104 7.44935C24.7029 9.71654 25.1989 10.1431 25.4823 10.8541C25.9782 12.0627 25.128 15.033 24.5612 17.6557C24.5612 17.5846 23.0104 11.9126 22.3727 8.30251C22.3018 7.94703 22.3727 7.80483 22.3727 7.80483C18.5625 7.44935 15.9488 7.30716 15.5237 9.28996C13.7603 9.28996 12.9101 9.78764 12.6976 10.1431C12.2724 10.9252 12.7684 12.4814 13.1227 13.2635C13.4061 12.6236 14.8861 12.7658 15.382 12.7658C15.6654 12.8369 15.6654 12.908 15.7363 13.1213V20.7049H11.1467L7.26562 31.4089C9.02904 32.2621 11.0129 32.9651 12.2095 32.9651C13.4061 32.9651 16.374 31.4089 16.7991 31.4089C17.1533 31.4089 20.1212 32.9651 21.3178 32.9651C22.5144 32.9651 24.4274 32.3253 26.2616 31.4089L22.3806 20.7049H17.791V13.4057C17.7201 12.9791 17.5076 12.7658 17.3659 12.7658L19.6252 12.6947C19.271 11.4229 18.8459 10.4275 18.2161 10.3564C18.3578 10.072 18.5703 9.92983 18.7829 9.71654H17.0195C17.1612 8.79229 19.4914 9.07667 20.4833 9.21887C21.4752 14.322 23.4512 21.2658 23.5221 21.3369C23.5929 21.408 25.2146 22.0479 25.3563 22.119C26.2774 20.0651 27.7574 13.9665 27.8282 12.4814C29.0327 12.908 28.6076 14.4642 28.3242 16.0994C26.9859 24.394 25.8523 26.9456 25.6397 28.5019C26.8442 28.2175 27.474 28.0042 27.6865 27.862C27.8282 27.5776 28.3951 26.2347 28.891 24.6705C29.5995 22.4033 30.6544 16.7314 30.6544 14.4642C30.6544 13.9665 30.1585 13.3267 29.387 12.9791C29.387 12.9791 29.8121 12.2681 29.9538 11.7704C30.2372 11.2728 30.4497 10.2142 30.4497 10.2142C30.9457 10.3564 31.3 10.5697 31.3708 11.0674C31.6542 13.2635 31.5125 13.4057 31.2291 17.4424C31.2291 18.651 30.7331 21.2658 30.308 23.9596C29.4578 28.7783 28.6155 30.9033 28.6155 31.6854C29.8829 31.2588 30.8749 30.9033 31.0166 30.7612C31.0874 30.619 32.0085 28.2807 32.7091 24.6626C32.9925 23.1064 33.1342 21.6134 33.4176 20.0572C33.7719 18.0033 33.8427 15.8072 33.8427 14.1008C33.8427 11.4782 34.197 11.4782 32.221 10.4828C33.0004 8.4289 32.7878 7.00697 32.6461 6.58829C32.2919 5.87732 31.9376 5.87732 30.2451 5.94842C30.8119 6.58829 30.6702 7.64684 30.5285 8.35781C30.1742 8.07342 30.3868 7.57574 28.5525 7.64684C28.2691 4.66868 27.7023 4.38429 27.7023 4.2421C27.4189 3.88662 25.9389 4.09991 25.5138 4.2421C25.868 4.52649 26.5057 6.72258 26.2223 7.71794C26.0806 7.43355 23.5378 4.52649 23.6795 3.95771C23.8212 3.60223 24.0338 3.24675 24.884 2.25929C27.8519 2.89916 32.8666 4.73978 33.2208 5.30855C33.5042 6.01952 33.7876 6.79368 34.0002 7.93123C34.2836 9.62965 34.7795 13.6743 34.4961 19.7649C34.2127 26.1399 33.3625 29.6868 33.5042 29.5446C34.4253 29.2602 35.9053 27.8462 36.047 27.4907C36.4721 26.4243 36.6138 22.743 36.7555 19.3383C36.6847 16.0046 36.3304 11.7546 36.1887 10.1273C35.6927 6.16171 35.4093 5.09526 34.9134 4.2421L34.8819 4.2579ZM12.1386 30.7612C11.2176 30.7612 9.87925 30.619 9.87925 30.619L12.1386 23.8885L14.2563 30.619C14.2563 30.5479 12.9888 30.7612 12.1386 30.7612ZM23.5142 30.5479C23.5142 30.5479 22.1759 30.6901 21.2548 30.6901C20.4755 30.6901 19.1372 30.5479 19.1372 30.5479L21.2548 23.8174L23.5142 30.5479ZM17.6493 25.3736V22.7509H19.6252L16.6574 31.1166L13.6895 22.822H15.6654V24.6626C15.6654 24.6626 15.6654 24.8048 15.7363 24.8048C16.0197 24.947 16.0905 24.947 16.0905 24.947L17.6414 25.3736H17.6493ZM17.8618 11.6993H14.4688C14.1854 10.8462 14.4688 10.6329 15.2482 10.5618C16.5865 10.4907 17.791 10.4907 17.8618 11.6993ZM27.537 8.01022C28.7414 7.86803 28.2455 10.0641 27.8912 10.9884C27.3953 9.92193 27.041 9.28996 26.2695 8.29461C26.6946 8.08132 27.0489 8.08132 27.537 8.01022Z" fill="white"/>
<path d="M5.43145 26.7242C5.99826 26.0133 8.11593 23.8883 8.47018 22.6875C8.82444 21.2735 9.1787 17.8688 9.1787 17.0867C9.1787 17.0867 7.06103 18.5718 5.99826 19.7094C5.5023 20.2071 4.86464 21.1234 4.86464 21.1234C4.58123 19.9148 4.93549 18.5007 5.43145 17.7187C6.13996 16.51 8.68274 14.3139 9.03699 13.3976C9.6038 11.9124 9.53295 10.6327 9.95806 9.07648C8.2655 9.71634 6.14784 10.9882 5.08507 12.1257C5.01421 10.4273 5.51017 9.14757 6.63592 8.30231C8.25763 7.03047 10.4461 6.3195 11.7923 5.89292C12.9968 5.53744 14.9728 5.18196 15.886 4.68428C17.6494 3.83112 19.3419 1.27954 19.767 -0.000197883C19.2002 -0.000197883 17.0826 -0.0712946 15.0357 0.710769C14.2564 1.06625 13.9021 1.77722 13.6266 2.33809C13.2723 2.83577 12.9181 3.40454 12.6347 3.82322C11.7844 5.09506 10.8004 5.73493 9.52508 6.09042C9.52508 6.01932 10.3753 5.45055 10.9342 4.17871C11.4302 3.04116 12.0679 0.916159 12.0679 0.702869C10.9342 0.845062 10.3044 1.20055 9.09997 1.62713C7.8955 2.1248 7.47826 2.69358 7.26571 3.18335C6.4155 4.45519 6.6989 8.14432 5.00634 9.49516C5.07719 7.58345 5.5023 5.52954 4.86464 3.18335C1.47165 4.60529 0.771009 5.81393 1.05441 7.22796C1.40867 9.21077 3.52634 10.0639 4.4474 11.7623C4.80166 12.26 4.87251 12.971 4.87251 12.971C4.94336 12.971 4.164 13.8952 4.4474 15.807C4.4474 15.807 3.73889 14.3929 3.1091 13.5398C2.10931 12.26 0.133347 10.135 0.133347 10.135C-0.291761 15.4515 0.416752 16.51 0.629306 16.9366C1.33782 18.0742 3.73889 19.7726 4.3057 20.9022C4.58911 21.3999 4.65996 21.6132 4.65996 21.6132C4.73081 21.7554 4.164 22.4663 4.23485 23.4538C4.3057 23.8093 4.37655 24.1648 4.51825 24.6624C4.51825 24.6624 3.73889 23.5249 2.75485 22.3952C1.90463 21.3288 0.14122 20.057 0.0703683 20.057C-0.000482966 20.6968 0.353774 23.6039 0.424625 24.0937C0.566327 25.5788 0.70803 26.9296 1.97548 28.2726C2.9674 29.339 6.42337 30.7531 7.13188 31.0374C7.13188 31.0374 6.99018 30.3265 6.63592 29.4101C5.99826 28.3437 5.43145 26.7163 5.43145 26.7163V26.7242Z" fill="white"/>
</svg>
